# xmcd
#
# Track frame offsets:
#	150
#	16377
#	32743
#	57090
#	77642
#	93645
#	113638
#	129094
#	144807
#	157886
#	175633
#	187322
#	204639
#	231691
#	259044
#	272135
#
# Disc length: 3849 seconds
#
# Revision: 0
# Processed by: cddbd v1.5.1PL0 Copyright (c) Steve Scherf et al.
# Submitted via: dBpowerAMP V4.0
#
DISCID=d50f0710
DTITLE=The Carl Henry Band - Southbound Home
DYEAR=1900
DGENRE=Blues
TTITLE0=Southbound Home
TTITLE1=Are They All the Same
TTITLE2=Have You Ever Loved a Woman
TTITLE3=Detroit Stomp
TTITLE4=Lonesome
TTITLE5=Spooky Joe
TTITLE6=Framed
TTITLE7=I've Used up My Right to Be Alive
TTITLE8=Mexican Rhumba
TTITLE9=Boom Boom
TTITLE10=Old Dawg
TTITLE11=Southern Accents
TTITLE12=Delia's Gone
TTITLE13=Mean Town Blues
TTITLE14=It Must Be Detroit
TTITLE15=Bonus Track
EXTD=
EXTT0=
EXTT1=
EXTT2=
EXTT3=
EXTT4=
EXTT5=
EXTT6=
EXTT7=
EXTT8=
EXTT9=
EXTT10=
EXTT11=
EXTT12=
EXTT13=
EXTT14=
EXTT15=
PLAYORDER=
